<?xml version="1.0" encoding="UTF-8"?>
<svg width="25px" height="25px" viewBox="0 0 25 25" version="1.1" xmlns="http://www.w3.org/2000/svg" xmlns:xlink="http://www.w3.org/1999/xlink">
    <!-- Generator: Sketch 48.2 (47327) - http://www.bohemiancoding.com/sketch -->
    <title>Group</title>
    <desc>Created with Sketch.</desc>
    <defs></defs>
    <g id="Screen---Resources" stroke="none" stroke-width="1" fill="none" fill-rule="evenodd" transform="translate(-520.000000, -156.000000)">
        <g id="Group-2" transform="translate(520.000000, 156.000000)" fill="#000000" fill-rule="nonzero">
            <g id="Group">
                <path d="M6.05769231,15.1923077 C7.27564103,16.4102564 8.91025641,17.0833333 10.6410256,17.0833333 C12.3717949,17.0833333 13.974359,16.4102564 15.224359,15.1923077 C15.8974359,14.5192308 16.4102564,13.6858974 16.7628205,12.7884615 C16.9230769,12.3717949 16.6987179,11.9230769 16.2820513,11.7628205 C15.8653846,11.6025641 15.4166667,11.8269231 15.2564103,12.2435897 C15,12.9166667 14.6153846,13.525641 14.1025641,14.0705128 C13.1730769,15 11.9551282,15.4807692 10.6730769,15.4807692 C9.39102564,15.4807692 8.14102564,14.9679487 7.24358974,14.0705128 L3.17307692,10.0641026 C2.24358974,9.13461538 1.76282051,7.91666667 1.76282051,6.63461538 C1.76282051,5.3525641 2.27564103,4.1025641 3.17307692,3.20512821 C5.06410256,1.31410256 8.14102564,1.31410256 10.0320513,3.20512821 L13.7820513,6.95512821 C14.1025641,7.27564103 14.6153846,7.27564103 14.9038462,6.95512821 C15.224359,6.63461538 15.224359,6.12179487 14.9038462,5.83333333 L11.1858974,2.05128205 C8.65384615,-0.480769231 4.55128205,-0.480769231 2.05128205,2.05128205 C0.833333333,3.26923077 0.16025641,4.90384615 0.16025641,6.63461538 C0.16025641,8.36538462 0.833333333,9.96794872 2.05128205,11.2179487 L6.05769231,15.1923077 Z" id="Shape"></path>
                <path d="M14.9358974,21.8269231 L11.1858974,18.0769231 C10.8653846,17.7564103 10.3525641,17.7564103 10.0641026,18.0769231 C9.74358974,18.3974359 9.74358974,18.9102564 10.0641026,19.1987179 L13.8141026,22.9487179 C15.0641026,24.1987179 16.7307692,24.8397436 18.3974359,24.8397436 C20.0641026,24.8397436 21.6987179,24.1987179 22.9807692,22.9487179 C24.1987179,21.7307692 24.8717949,20.0961538 24.8717949,18.3653846 C24.8717949,16.6346154 24.1987179,15.0320513 22.9807692,13.7820513 L18.9423077,9.80769231 C17.724359,8.58974359 16.0897436,7.91666667 14.3589744,7.91666667 C12.6282051,7.91666667 11.025641,8.58974359 9.77564103,9.80769231 C9.1025641,10.4807692 8.58974359,11.3141026 8.23717949,12.2115385 C8.07692308,12.6282051 8.30128205,13.0769231 8.71794872,13.2371795 C9.13461538,13.3974359 9.58333333,13.1730769 9.74358974,12.7564103 C10,12.0833333 10.3846154,11.474359 10.8974359,10.9294872 C11.8269231,10 13.0448718,9.51923077 14.3269231,9.51923077 C15.6089744,9.51923077 16.8589744,10.0320513 17.7564103,10.9294872 L21.7628205,14.9358974 C22.6923077,15.8653846 23.1730769,17.0833333 23.1730769,18.3653846 C23.1730769,19.6474359 22.6602564,20.8974359 21.7628205,21.7948718 C19.9038462,23.7179487 16.8269231,23.7179487 14.9358974,21.8269231 Z" id="Shape"></path>
            </g>
        </g>
    </g>
</svg>