<?xml version="1.0" encoding="UTF-8"?>
<svg width="23px" height="17px" viewBox="0 0 23 17" version="1.1" xmlns="http://www.w3.org/2000/svg" xmlns:xlink="http://www.w3.org/1999/xlink">
    <!-- Generator: Sketch 47.1 (45422) - http://www.bohemiancoding.com/sketch -->
    <title>noun_968256_cc</title>
    <desc>Created with Sketch.</desc>
    <defs></defs>
    <g id="Page-1" stroke="none" stroke-width="1" fill="none" fill-rule="evenodd">
        <g id="Screen---Add-Data-Profiles" transform="translate(-500.000000, -395.000000)" fill-rule="nonzero" fill="#000000">
            <g id="noun_968256_cc" transform="translate(500.000000, 395.000000)">
                <path d="M6.75462055,1.84034494 C6.51100589,1.61661041 6.13211625,1.63242099 5.90885269,1.87494922 L0.158469243,8.09596237 C-0.052823081,8.3244699 -0.052823081,8.67588227 0.158469243,8.9043898 L5.90855341,15.125403 C6.02676937,15.2530808 6.18748322,15.3178147 6.34909491,15.3178147 C6.49394688,15.3178147 6.6393974,15.2656099 6.75432127,15.1600072 C6.99763665,14.9368693 7.01289998,14.5592054 6.78873857,14.3169755 L1.41275555,8.50017609 L6.78903785,2.68307833 C7.01319926,2.44084842 6.99763665,2.06348285 6.75462055,1.84034494 Z M22.8415681,8.09596237 L17.091484,1.87494922 C16.8673226,1.63242099 16.4890315,1.61690873 16.2457161,1.84034494 C16.0024007,2.06348285 15.9871374,2.44114673 16.2112988,2.68337665 L21.5872818,8.50017609 L16.2109995,14.3172738 C15.9868381,14.5595038 16.0024007,14.9371676 16.2454168,15.1603055 C16.36064,15.2659082 16.5057912,15.318113 16.6506432,15.318113 C16.8122549,15.318113 16.973268,15.2533791 17.0911847,15.1257013 L22.8412689,8.90468812 C23.0528605,8.67588227 23.0528605,8.3244699 22.8415681,8.09596237 Z M14.8630383,0.0421159542 C14.554779,-0.0792973168 14.2079124,0.0707539739 14.0858058,0.377121122 L7.80090662,16.1835181 C7.67909929,16.4898853 7.82963759,16.8365246 8.1366998,16.9579379 C8.20912578,16.9865759 8.28364673,17 8.35697055,17 C8.59549744,17 8.82055669,16.8571082 8.91363305,16.6229327 L15.1985322,0.816535737 C15.3209381,0.510466902 15.1703998,0.163827538 14.8630383,0.0421159542 Z" id="Shape"></path>
            </g>
        </g>
    </g>
</svg>