<?xml version="1.0" encoding="UTF-8"?>
<svg width="17px" height="17px" viewBox="0 0 17 17" version="1.1" xmlns="http://www.w3.org/2000/svg" xmlns:xlink="http://www.w3.org/1999/xlink">
    <!-- Generator: Sketch 48.2 (47327) - http://www.bohemiancoding.com/sketch -->
    <title>noun_1219305_cc</title>
    <desc>Created with Sketch.</desc>
    <defs></defs>
    <g id="Screen---Add-Data-Profiles-=-Search-Box-Add" stroke="none" stroke-width="1" fill="none" fill-rule="evenodd" transform="translate(-55.000000, -221.000000)">
        <g id="noun_1219305_cc" transform="translate(55.000000, 221.000000)" fill="#000000">
            <g>
                <path d="M9.33261364,1.74155556 L6.99511364,0.188888889 C6.87684109,0.109698809 6.72345023,0.101042958 6.59664571,0.16640333 C6.46984119,0.231763702 6.39046758,0.360396124 6.39045455,0.500555556 L6.39045455,1.72455556 L3.10636364,1.72455556 C2.25283266,1.72455556 1.56090909,2.40110304 1.56090909,3.23566667 L1.56090909,5.40788889 L2.33363636,5.40788889 L2.33363636,3.23566667 C2.33363636,2.81838486 2.67959815,2.48011111 3.10636364,2.48011111 L6.39045455,2.48011111 L6.39045455,3.61344444 C6.39023882,3.75330209 6.46906437,3.88183274 6.59534011,3.9475249 C6.72161584,4.01321707 6.87467734,4.00532053 6.99318182,3.927 L9.33068182,2.36677778 C9.43665676,2.29647078 9.50011552,2.17938714 9.50011552,2.05416667 C9.50011552,1.92894619 9.43665676,1.81186256 9.33068182,1.74155556 L9.33261364,1.74155556 Z M7.15931818,2.89188889 L7.15931818,1.20888889 L8.42465909,2.05322222 L7.15931818,2.89188889 Z" id="Shape" fill-rule="nonzero"></path>
                <path d="M16.9323864,6.73388889 C16.8656483,6.60965027 16.7339773,6.53182138 16.5904545,6.53177778 L15.3405682,6.53177778 L15.3405682,3.32066667 C15.3405682,2.48610304 14.6486446,1.80955556 13.7951136,1.80955556 L11.5909091,1.79444444 L11.5909091,2.55 L13.8125,2.55 C14.2392655,2.55 14.5852273,2.88827374 14.5852273,3.30555556 L14.5852273,6.51666667 L13.4261364,6.51666667 C13.2831001,6.51645574 13.1516483,6.59352961 13.0844632,6.71699921 C13.017278,6.84046882 13.025354,6.99012895 13.1054545,7.106 L14.6818182,9.40666667 C14.7534029,9.510221 14.8727376,9.57245183 15.0005682,9.57288889 C15.1280374,9.57287756 15.2472981,9.51139206 15.3193182,9.40855556 L16.915,7.123 C16.9939994,7.0064384 17.0006881,6.85674297 16.9323864,6.73388889 Z M15.0005682,8.52266667 L14.1428409,7.28355556 L15.8640909,7.28355556 L15.0005682,8.52266667 Z" id="Shape" fill-rule="nonzero"></path>
                <path d="M0.407613636,10.4682222 L1.65943182,10.4682222 L1.65943182,13.6793333 C1.65943182,14.513897 2.35135539,15.1904444 3.20488636,15.1904444 L5.42647727,15.1904444 L5.42647727,14.4348889 L3.20488636,14.4348889 C2.77812088,14.4348889 2.43215909,14.0966151 2.43215909,13.6793333 L2.43215909,10.4682222 L3.59125,10.4682222 C3.73428623,10.4684332 3.86573803,10.3913593 3.9329232,10.2678897 C4.00010836,10.1444201 3.99203236,9.99475994 3.91193182,9.87888889 L2.31818182,7.59333333 C2.24659706,7.489779 2.12726236,7.42754817 1.99943182,7.42711111 C1.8719626,7.42712244 1.75270193,7.48860794 1.68068182,7.59144444 L0.0907954545,9.877 C0.00980560025,9.99264427 0.000953025402,10.1426264 0.0677988605,10.2666131 C0.134644696,10.3905997 0.266200581,10.4682095 0.409545455,10.4682222 L0.407613636,10.4682222 Z M2.00136364,8.47733333 L2.85909091,9.71644444 L1.13784091,9.71644444 L2.00136364,8.47733333 Z" id="Shape" fill-rule="nonzero"></path>
                <path d="M13.7159091,15.2886667 C14.5694401,15.2886667 15.2613636,14.6121192 15.2613636,13.7775556 L15.2613636,11.6053333 L14.4886364,11.6053333 L14.4886364,13.7775556 C14.4886364,14.1948374 14.1426746,14.5331111 13.7159091,14.5331111 L10.4318182,14.5331111 L10.4318182,13.3997778 C10.4320339,13.2599201 10.3532084,13.1313895 10.2269326,13.0656973 C10.1006569,13.0000052 9.94759539,13.0079017 9.82909091,13.0862222 L7.47613636,14.6332222 C7.37016142,14.7035292 7.30670266,14.8206129 7.30670266,14.9458333 C7.30670266,15.0710538 7.37016142,15.1881374 7.47613636,15.2584444 L9.81170455,16.8111111 C9.9299771,16.8903012 10.0833679,16.898957 10.2101725,16.8335967 C10.336977,16.7682363 10.4163506,16.6396039 10.4163636,16.4994444 L10.4163636,15.283 L13.7004545,15.283 L13.7159091,15.2886667 Z M9.65909091,15.7911111 L8.39375,14.9467778 L9.66102273,14.1081111 L9.65909091,15.7911111 Z" id="Shape" fill-rule="nonzero"></path>
                <path d="M9.5625,5.85555556 L7.24431818,5.85555556 C6.3907872,5.85555556 5.69886364,6.53210304 5.69886364,7.36666667 L5.69886364,9.63333333 C5.69886364,10.467897 6.3907872,11.1444444 7.24431818,11.1444444 L9.5625,11.1444444 C10.416031,11.1444444 11.1079545,10.467897 11.1079545,9.63333333 L11.1079545,7.36666667 C11.1079545,6.53210304 10.416031,5.85555556 9.5625,5.85555556 Z M10.3352273,9.63333333 C10.3352273,10.0506151 9.98926549,10.3888889 9.5625,10.3888889 L7.24431818,10.3888889 C6.81755269,10.3888889 6.47159091,10.0506151 6.47159091,9.63333333 L6.47159091,7.36666667 C6.47159091,6.94938486 6.81755269,6.61111111 7.24431818,6.61111111 L9.5625,6.61111111 C9.98926549,6.61111111 10.3352273,6.94938486 10.3352273,7.36666667 L10.3352273,9.63333333 Z" id="Shape" fill-rule="nonzero"></path>
                <rect id="Rectangle-path" fill-rule="nonzero" x="7.30227273" y="7.42333333" width="2.20034091" height="2.15144444" rx="1.07572222"></rect>
            </g>
        </g>
    </g>
</svg>