<?xml version="1.0" encoding="UTF-8"?>
<svg width="15px" height="20px" viewBox="0 0 15 20" version="1.1" xmlns="http://www.w3.org/2000/svg" xmlns:xlink="http://www.w3.org/1999/xlink">
    <!-- Generator: Sketch 47.1 (45422) - http://www.bohemiancoding.com/sketch -->
    <title>noun_1296753_cc</title>
    <desc>Created with Sketch.</desc>
    <defs></defs>
    <g id="Symbols" stroke="none" stroke-width="1" fill="none" fill-rule="evenodd">
        <g id="Sidebar" transform="translate(-55.000000, -122.000000)" fill-rule="nonzero" fill="#333333">
            <g id="noun_1296753_cc" transform="translate(55.000000, 122.000000)">
                <g id="Group">
                    <path d="M14.9998958,4.16389462 C14.9998958,2.85416559 13.9930625,1.82530538 12.6366042,1.14643011 C11.2802917,0.467554839 9.48035417,0.0778817204 7.5,0.0778817204 C5.51964583,0.0778817204 3.71970833,0.467556989 2.36329167,1.14643011 C1.00683333,1.82530323 0,2.85416129 0,4.16389462 C0.00270833333,7.12408817 0,12.7787097 0,15.7768172 C0,17.0865591 1.00683333,18.1086882 2.36329167,18.7875699 C3.71970833,19.4664516 5.51964583,19.8628387 7.5,19.8628387 C9.48035417,19.8628387 11.2802917,19.4664516 12.6367083,18.7875699 C13.9931667,18.1086882 15,17.0865591 15,15.7768172 L14.9998958,4.16389462 Z M7.5,1.3682043 C9.31660417,1.3682043 10.958,1.7425957 12.0898333,2.30906452 C13.2216875,2.87553333 13.75,3.57329677 13.75,4.16389462 C13.75,4.75451828 13.2217083,5.44555054 12.0898333,6.01202366 C10.958,6.57849677 9.31660417,6.95959355 7.5,6.95959355 C5.68341667,6.95959355 4.042,6.57849677 2.91016667,6.01202366 C1.7783125,5.44555054 1.25,4.75449677 1.25,4.16389462 C1.25,3.57330108 1.77829167,2.87553548 2.91016667,2.30906452 C4.042,1.74259355 5.68341667,1.3682043 7.5,1.3682043 Z M1.25,6.47572258 C1.5765,6.74002366 1.95591667,6.97077634 2.36329167,7.17464731 C3.71970833,7.85352903 5.51964583,8.24991613 7.5,8.24991613 C9.48035417,8.24991613 11.2802917,7.85352903 12.6367083,7.17464731 C13.0440833,6.97077634 13.4235,6.74002366 13.75,6.47572258 L13.75,8.03486237 C13.75,8.62548602 13.2217083,9.31651828 12.0898333,9.88298925 C10.958,10.4494624 9.31660417,10.8305806 7.5,10.8305806 C5.68341667,10.8305806 4.042,10.4494624 2.91016667,9.88298925 C1.77829167,9.31651828 1.25,8.62546452 1.25,8.03486237 L1.25,6.47572258 Z M1.25,10.3467097 C1.5765,10.6109892 1.955875,10.8417634 2.36329167,11.0456344 C3.71970833,11.7244946 5.51964583,12.1209032 7.5,12.1209032 C9.48035417,12.1209032 11.2802917,11.7245161 12.6367083,11.0456344 C13.044125,10.8417634 13.4235,10.6109892 13.75,10.3467097 L13.75,11.9058495 C13.75,12.4964516 13.2217083,13.1875054 12.0898333,13.753957 C10.958,14.3204301 9.31660417,14.7015484 7.5,14.7015484 C5.68341667,14.7015484 4.042,14.3204301 2.91016667,13.753957 C1.77829167,13.1874839 1.25,12.4964516 1.25,11.9058495 L1.25,10.3467097 Z M1.25,14.2176774 C1.5765,14.481957 1.95589583,14.7127312 2.36329167,14.9166022 C3.71970833,15.5954624 5.51964583,15.991871 7.5,15.991871 C9.48035417,15.991871 11.2802917,15.5954839 12.6367083,14.9166022 C13.0441042,14.7127312 13.4235,14.481957 13.75,14.2176774 L13.75,15.7768172 C13.75,16.3674194 13.2217083,17.0584731 12.0898333,17.6249247 C10.958,18.1913978 9.31660417,18.5725161 7.5,18.5725161 C5.68341667,18.5725161 4.042,18.1913978 2.91016667,17.6249247 C1.77829167,17.0584731 1.25,16.3674194 1.25,15.7768172 L1.25,14.2176774 Z" id="Shape"></path>
                </g>
            </g>
        </g>
    </g>
</svg>