<?xml version="1.0" encoding="UTF-8"?>
<svg width="12px" height="12px" viewBox="0 0 12 12" version="1.1" xmlns="http://www.w3.org/2000/svg" xmlns:xlink="http://www.w3.org/1999/xlink">
    <!-- Generator: Sketch 48.2 (47327) - http://www.bohemiancoding.com/sketch -->
    <title>Shape</title>
    <desc>Created with Sketch.</desc>
    <defs></defs>
    <g id="Screen---Add-Data-Profiles-=-Search-Box-Add" stroke="none" stroke-width="1" fill="none" fill-rule="evenodd" transform="translate(-58.000000, -86.000000)">
        <path d="M69.4165694,91.4154026 L64.5834306,91.4154026 L64.5834306,86.5834306 C64.5834306,86.2613769 64.3220537,86 64,86 C63.6779463,86 63.4165694,86.2613769 63.4165694,86.5834306 L63.4165694,91.4165694 L58.5834306,91.4165694 C58.2613769,91.4165694 58,91.6779463 58,92 C58,92.3220537 58.2613769,92.5834306 58.5834306,92.5834306 L63.4165694,92.5834306 L63.4165694,97.4165694 C63.4165694,97.7386231 63.6779463,98 64,98 C64.3220537,98 64.5834306,97.7386231 64.5834306,97.4165694 L64.5834306,92.5834306 L69.4165694,92.5834306 C69.7386231,92.5834306 70,92.3220537 70,92 C70,91.6779463 69.7386231,91.4154026 69.4165694,91.4154026 Z" id="Shape" fill="#333333" fill-rule="nonzero"></path>
    </g>
</svg>