<?xml version="1.0" encoding="UTF-8"?>
<svg width="17px" height="17px" viewBox="0 0 17 17" version="1.1" xmlns="http://www.w3.org/2000/svg" xmlns:xlink="http://www.w3.org/1999/xlink">
    <!-- Generator: Sketch 47.1 (45422) - http://www.bohemiancoding.com/sketch -->
    <title>Shape</title>
    <desc>Created with Sketch.</desc>
    <defs></defs>
    <g id="Page-1" stroke="none" stroke-width="1" fill="none" fill-rule="evenodd">
        <g id="Screen---Data-Profiles" transform="translate(-1222.000000, -82.000000)" fill-rule="nonzero" fill="#FFFFFF">
            <g id="Group-2" transform="translate(1082.000000, 82.000000)">
                <path d="M148.134465,0 C147.341689,0 146.698971,0.663541032 146.698971,1.48205569 L146.698971,6.91625988 L141.435494,6.91625988 C140.642694,6.91625988 140,7.57976633 140,8.39830321 C140,9.21679317 140.642694,9.8803589 141.435494,9.8803589 L146.698971,9.8803589 L146.698971,15.3145878 C146.698971,16.1331024 147.341689,16.7966435 148.134465,16.7966435 C148.927288,16.7966435 149.569959,16.1331024 149.569959,15.3145878 L149.569959,9.8803589 L154.833436,9.8803589 C155.626235,9.8803589 156.268929,9.21679317 156.268929,8.39830321 C156.268929,7.57976633 155.626235,6.91625988 154.833436,6.91625988 L149.569959,6.91625988 L149.569959,1.48205569 C149.569959,0.663541032 148.927288,0 148.134465,0 Z" id="Shape"></path>
            </g>
        </g>
    </g>
</svg>