<?xml version="1.0" encoding="UTF-8"?>
<svg width="15px" height="20px" viewBox="0 0 15 20" version="1.1" xmlns="http://www.w3.org/2000/svg" xmlns:xlink="http://www.w3.org/1999/xlink">
    <!-- Generator: Sketch 47.1 (45422) - http://www.bohemiancoding.com/sketch -->
    <title>noun_1296077_cc</title>
    <desc>Created with Sketch.</desc>
    <defs></defs>
    <g id="Symbols" stroke="none" stroke-width="1" fill="none" fill-rule="evenodd">
        <g id="Sidebar" transform="translate(-55.000000, -162.000000)" fill-rule="nonzero" fill="#333333">
            <g id="noun_1296077_cc" transform="translate(55.000000, 162.000000)">
                <g id="Group" transform="translate(0.000000, 0.138657)">
                    <path d="M1.28571429,0.0787326087 C0.580842857,0.0787326087 0,0.667995652 0,1.38308043 L0,18.3396087 C0,19.0546957 0.580842857,19.6439565 1.28571429,19.6439565 L13.7142857,19.6439565 C14.4191571,19.6439565 15,19.0546957 15,18.3396087 L15,1.38308043 C15,0.667995652 14.4191571,0.0787326087 13.7142857,0.0787326087 L1.28571429,0.0787326087 Z M1.28571429,0.948297826 L13.7142857,0.948297826 C13.9591286,0.948297826 14.1428571,1.13469783 14.1428571,1.38308043 L14.1428571,18.3396087 C14.1428571,18.5879783 13.9591286,18.7743913 13.7142857,18.7743913 L1.28571407,18.7743913 C1.04087121,18.7743913 0.857142643,18.5879783 0.857142643,18.3396087 L0.857142643,1.38308043 C0.857142643,1.13469783 1.04087121,0.948297826 1.28571407,0.948297826 L1.28571429,0.948297826 Z M6.0066855,3.3328087 C5.9886855,3.33389565 5.97081407,3.3362 5.95311407,3.3395913 C5.84335714,3.35435217 5.74013571,3.41418478 5.67188571,3.50263478 L3.83035714,5.74448261 L2.87275714,4.77301522 C2.71442143,4.60751522 2.42031407,4.60611957 2.26043571,4.77010217 C2.10057836,4.93408913 2.10522857,5.23242609 2.27007857,5.39121739 L3.55579286,6.69556304 C3.72299979,6.86438913 4.03277143,6.85101957 4.1852355,6.66838913 L6.32809264,4.05969565 C6.43926429,3.93533478 6.46939286,3.7428 6.40165714,3.58962609 C6.33392143,3.43645435 6.17213571,3.3312587 6.00666429,3.33279348 L6.0066855,3.3328087 Z M7.28571429,5.30291739 C7.04901407,5.30291739 6.85714286,5.49756957 6.85714286,5.7377 C6.85714286,5.97783043 7.04901407,6.17248261 7.28571429,6.17248261 L12.4285714,6.17248261 C12.6652714,6.17248261 12.8571429,5.97783043 12.8571429,5.7377 C12.8571429,5.49756957 12.6652714,5.30291739 12.4285714,5.30291739 L7.28571429,5.30291739 Z M6.0066855,8.11541087 C5.9886855,8.11541087 5.97081407,8.11888913 5.95311407,8.12215 C5.84335693,8.13693261 5.74013571,8.1967587 5.67188571,8.28519348 L3.83035714,10.5270435 L2.87275693,9.55558696 C2.71442121,9.39008696 2.42031407,9.38869565 2.2604355,9.55276087 C2.10057836,9.71673913 2.10522836,10.015087 2.27007836,10.1738696 L3.55579264,11.4782174 C3.72299979,11.6470435 4.03277121,11.6336739 4.1852355,11.4510435 L6.32809264,8.84234565 C6.43926407,8.71797609 6.46939286,8.52545435 6.40165693,8.37228043 C6.33392121,8.21910652 6.1721355,8.11391087 6.00666407,8.11545435 L6.0066855,8.11541087 Z M7.28571429,10.0855217 C7.04901407,10.0855217 6.85714286,10.2801739 6.85714286,10.5203043 C6.85714286,10.7604348 7.04901407,10.955087 7.28571429,10.955087 L12.4285714,10.955087 C12.6652714,10.955087 12.8571429,10.7604348 12.8571429,10.5203043 C12.8571429,10.2801739 12.6652714,10.0855217 12.4285714,10.0855217 L7.28571429,10.0855217 Z M6.0066855,12.8980217 C5.9886855,12.8980217 5.97081407,12.9015 5.95311407,12.9047609 C5.84335693,12.9195435 5.74013571,12.9793696 5.67188571,13.0678043 L3.83035714,15.3096522 L2.87275693,14.3381957 C2.71442121,14.1726957 2.42031407,14.1713043 2.2604355,14.3353696 C2.10057836,14.4993478 2.10522836,14.7976957 2.27007836,14.9564783 L3.55579264,16.2608261 C3.72299979,16.4296522 4.03277121,16.4162826 4.1852355,16.2336522 L6.32809264,13.6249565 C6.43926407,13.5006087 6.46939286,13.3080652 6.40165693,13.1548913 C6.33392121,13.0017174 6.1721355,12.8965217 6.00666407,12.8980652 L6.0066855,12.8980217 Z M7.28571429,14.8681304 C7.04901407,14.8681304 6.85714286,15.0627826 6.85714286,15.302913 C6.85714286,15.5430435 7.04901407,15.7376957 7.28571429,15.7376957 L12.4285714,15.7376957 C12.6652714,15.7376957 12.8571429,15.5430435 12.8571429,15.302913 C12.8571429,15.0627826 12.6652714,14.8681304 12.4285714,14.8681304 L7.28571429,14.8681304 Z" id="Shape"></path>
                </g>
            </g>
        </g>
    </g>
</svg>