<?xml version="1.0" encoding="UTF-8"?>
<svg width="17px" height="17px" viewBox="0 0 17 17" version="1.1" xmlns="http://www.w3.org/2000/svg" xmlns:xlink="http://www.w3.org/1999/xlink">
    <!-- Generator: Sketch 48.2 (47327) - http://www.bohemiancoding.com/sketch -->
    <title>noun_1098671_cc</title>
    <desc>Created with Sketch.</desc>
    <defs></defs>
    <g id="Screen---Add-Data-Profiles-=-Search-Box-Add" stroke="none" stroke-width="1" fill="none" fill-rule="evenodd" transform="translate(-55.000000, -178.000000)">
        <g id="noun_1098671_cc" transform="translate(55.000000, 178.000000)" fill="#000000" fill-rule="nonzero">
            <g id="Group">
                <g id="Shape">
                    <path d="M0,3.36458333 L0,6.19791667 L0,11.5104167 L0,13.6354167 C0,15.40625 1.41666667,16.8229167 3.1875,16.8229167 L13.8125,16.8229167 C15.5833333,16.8229167 17,15.40625 17,13.6354167 L17,11.5104167 L17,6.19791667 L17,3.36458333 C17,1.59375 15.5833333,0.177083333 13.8125,0.177083333 L3.1875,0.177083333 C1.41666667,0.177083333 0,1.59375 0,3.36458333 Z M16.2916667,6.55208333 L16.2916667,11.15625 L0.708333333,11.15625 L0.708333333,6.55208333 L16.2916667,6.55208333 Z M13.8125,16.1145833 L3.1875,16.1145833 C1.80625,16.1145833 0.708333333,15.0166667 0.708333333,13.6354167 L0.708333333,11.8645833 L16.2916667,11.8645833 L16.2916667,13.6354167 C16.2916667,15.0166667 15.19375,16.1145833 13.8125,16.1145833 Z M16.2916667,3.36458333 L16.2916667,5.84375 L0.708333333,5.84375 L0.708333333,3.36458333 C0.708333333,1.98333333 1.80625,0.885416667 3.1875,0.885416667 L13.8125,0.885416667 C15.19375,0.885416667 16.2916667,1.98333333 16.2916667,3.36458333 Z"></path>
                    <path d="M2.19583333,3.36458333 C2.19583333,4.0375 2.7625,4.60416667 3.43541667,4.60416667 C4.10833333,4.60416667 4.675,4.0375 4.675,3.36458333 C4.675,2.69166667 4.14375,2.125 3.47083333,2.125 C2.79791667,2.125 2.19583333,2.69166667 2.19583333,3.36458333 Z M3.47083333,2.83333333 C3.75416667,2.83333333 4.00208333,3.08125 4.00208333,3.36458333 C4.00208333,3.64791667 3.75416667,3.89583333 3.47083333,3.89583333 C3.1875,3.89583333 2.93958333,3.64791667 2.93958333,3.36458333 C2.93958333,3.08125 3.15208333,2.83333333 3.47083333,2.83333333 Z"></path>
                    <path d="M6.65833333,4.60416667 C7.33125,4.60416667 7.89791667,4.0375 7.89791667,3.36458333 C7.89791667,2.69166667 7.33125,2.125 6.65833333,2.125 C5.98541667,2.125 5.41875,2.69166667 5.41875,3.36458333 C5.41875,4.0375 5.95,4.60416667 6.65833333,4.60416667 Z M6.65833333,2.83333333 C6.94166667,2.83333333 7.18958333,3.08125 7.18958333,3.36458333 C7.18958333,3.64791667 6.94166667,3.89583333 6.65833333,3.89583333 C6.375,3.89583333 6.12708333,3.64791667 6.12708333,3.36458333 C6.12708333,3.08125 6.33958333,2.83333333 6.65833333,2.83333333 Z"></path>
                    <path d="M3.47083333,9.91666667 C4.14375,9.91666667 4.71041667,9.35 4.71041667,8.67708333 C4.71041667,8.00416667 4.14375,7.4375 3.47083333,7.4375 C2.79791667,7.4375 2.23125,8.00416667 2.23125,8.67708333 C2.23125,9.35 2.7625,9.91666667 3.47083333,9.91666667 Z M3.47083333,8.14583333 C3.75416667,8.14583333 4.00208333,8.39375 4.00208333,8.67708333 C4.00208333,8.96041667 3.75416667,9.20833333 3.47083333,9.20833333 C3.1875,9.20833333 2.93958333,8.96041667 2.93958333,8.67708333 C2.93958333,8.39375 3.15208333,8.14583333 3.47083333,8.14583333 Z"></path>
                    <path d="M6.65833333,9.91666667 C7.33125,9.91666667 7.89791667,9.35 7.89791667,8.67708333 C7.89791667,8.00416667 7.33125,7.4375 6.65833333,7.4375 C5.98541667,7.4375 5.41875,8.00416667 5.41875,8.67708333 C5.41875,9.35 5.95,9.91666667 6.65833333,9.91666667 Z M6.65833333,8.14583333 C6.94166667,8.14583333 7.18958333,8.39375 7.18958333,8.67708333 C7.18958333,8.96041667 6.94166667,9.20833333 6.65833333,9.20833333 C6.375,9.20833333 6.12708333,8.96041667 6.12708333,8.67708333 C6.12708333,8.39375 6.33958333,8.14583333 6.65833333,8.14583333 Z"></path>
                    <path d="M3.47083333,12.75 C2.79791667,12.75 2.23125,13.3166667 2.23125,13.9895833 C2.23125,14.6625 2.79791667,15.2291667 3.47083333,15.2291667 C4.14375,15.2291667 4.71041667,14.6625 4.71041667,13.9895833 C4.71041667,13.3166667 4.14375,12.75 3.47083333,12.75 Z M3.47083333,14.5208333 C3.1875,14.5208333 2.93958333,14.2729167 2.93958333,13.9895833 C2.93958333,13.70625 3.1875,13.4583333 3.47083333,13.4583333 C3.75416667,13.4583333 4.00208333,13.70625 4.00208333,13.9895833 C4.00208333,14.2729167 3.75416667,14.5208333 3.47083333,14.5208333 Z"></path>
                    <path d="M6.65833333,12.75 C5.98541667,12.75 5.41875,13.3166667 5.41875,13.9895833 C5.41875,14.6625 5.98541667,15.2291667 6.65833333,15.2291667 C7.33125,15.2291667 7.89791667,14.6625 7.89791667,13.9895833 C7.89791667,13.3166667 7.33125,12.75 6.65833333,12.75 Z M6.65833333,14.5208333 C6.375,14.5208333 6.12708333,14.2729167 6.12708333,13.9895833 C6.12708333,13.70625 6.375,13.4583333 6.65833333,13.4583333 C6.94166667,13.4583333 7.18958333,13.70625 7.18958333,13.9895833 C7.18958333,14.2729167 6.94166667,14.5208333 6.65833333,14.5208333 Z"></path>
                </g>
            </g>
        </g>
    </g>
</svg>