<?xml version="1.0" encoding="UTF-8"?>
<svg width="13px" height="13px" viewBox="0 0 13 13" version="1.1" xmlns="http://www.w3.org/2000/svg" xmlns:xlink="http://www.w3.org/1999/xlink">
    <!-- Generator: Sketch 48.2 (47327) - http://www.bohemiancoding.com/sketch -->
    <title>Shape</title>
    <desc>Created with Sketch.</desc>
    <defs></defs>
    <g id="Screen---Resources" stroke="none" stroke-width="1" fill="none" fill-rule="evenodd" transform="translate(-671.000000, -265.000000)">
        <path d="M679.642498,266.482809 C678.686231,265.526387 677.414967,265 676.062658,265 C674.71035,265 673.439086,265.526548 672.48298,266.482809 C671.526551,267.439232 671,268.710488 671,270.062788 C671,271.415088 671.526712,272.686344 672.482819,273.642767 C673.439086,274.598867 674.710189,275.125576 676.062658,275.125576 C677.414967,275.125576 678.686231,274.599028 679.642659,273.642767 C681.616582,271.668695 681.616421,268.456881 679.642498,266.482809 Z M678.731345,272.731459 C678.018374,273.444264 677.070646,273.836597 676.062658,273.836597 C675.05467,273.836597 674.107104,273.444103 673.394294,272.731459 C672.681484,272.018331 672.288987,271.07077 672.288987,270.062788 C672.288987,269.054806 672.681645,268.106923 673.394294,267.394118 C674.106943,266.681312 675.05467,266.288979 676.062658,266.288979 C677.070646,266.288979 678.018374,266.681473 678.731184,267.394118 C680.202402,268.865649 680.202402,271.259928 678.731345,272.731459 Z M683.811244,276.899856 L681.108238,274.196867 C680.856402,273.945032 680.448276,273.945032 680.196924,274.196867 C679.945088,274.448379 679.945088,274.856502 680.196924,275.108175 L682.89993,277.811165 C683.025767,277.937001 683.190758,278 683.355587,278 C683.520416,278 683.685568,277.937001 683.811244,277.811165 C684.062919,277.55933 684.062919,277.151207 683.811244,276.899856 Z" id="Shape" fill="#8E8888" fill-rule="nonzero"></path>
    </g>
</svg>