<?xml version="1.0" encoding="UTF-8"?>
<svg width="20px" height="20px" viewBox="0 0 20 20" version="1.1" xmlns="http://www.w3.org/2000/svg" xmlns:xlink="http://www.w3.org/1999/xlink">
    <!-- Generator: Sketch 47.1 (45422) - http://www.bohemiancoding.com/sketch -->
    <title>Shape</title>
    <desc>Created with Sketch.</desc>
    <defs></defs>
    <g id="Symbols" stroke="none" stroke-width="1" fill="none" fill-rule="evenodd">
        <g id="Sidebar" transform="translate(-52.000000, -242.000000)" fill-rule="nonzero" fill="#000000">
            <path d="M57.8831532,261.999975 C58.1017179,261.986497 58.2379349,261.846693 58.3043478,261.687476 L58.5828906,260.722805 C58.7411076,260.667457 58.8964767,260.605392 59.0448459,260.532588 L59.9144089,261.021717 C60.0795172,261.114304 60.3049297,261.082108 60.4374946,260.946978 L61.3817965,260.002676 C61.511731,259.869437 61.5407744,259.648699 61.4497312,259.486373 L60.960602,258.603223 C61.0329061,258.455267 61.1026886,258.305811 61.1576015,258.148072 L62.1222729,257.869529 C62.3001855,257.817377 62.4335548,257.640508 62.4347721,257.455139 L62.4347721,256.116816 C62.436946,255.929165 62.3023594,255.748404 62.1222729,255.695622 L61.1576015,255.423883 C61.1026886,255.266144 61.0328844,255.116667 60.960602,254.968732 L61.4497312,254.085582 C61.5407744,253.923257 61.511731,253.702518 61.3817965,253.569279 L60.4374946,252.624977 C60.3049297,252.489869 60.0795172,252.457673 59.9144089,252.55026 L59.0448459,253.039389 C58.8942376,252.965433 58.7368902,252.898281 58.5760862,252.842368 L58.3043478,251.884523 C58.2540436,251.701958 58.0725223,251.564349 57.8831532,251.565219 L56.5516348,251.565219 C56.3622875,251.565219 56.1807662,251.701958 56.1304403,251.884523 L55.8587018,252.842368 C55.6979196,252.898281 55.5405722,252.965433 55.3899639,253.039389 L54.5204009,252.55026 C54.3552926,252.457673 54.1298801,252.489869 53.9972935,252.624977 L53.0530132,253.569279 C52.9230788,253.702518 52.8940354,253.923257 52.9850786,254.085582 L53.4742078,254.968732 C53.4019037,255.116667 53.3321212,255.266144 53.2771866,255.423883 L52.3125151,255.695622 C52.1324503,255.748404 51.9983203,255.929165 52.0000159,256.116816 L52.0000159,257.455139 C52.0021898,257.640508 52.1346243,257.817377 52.3125151,257.869529 L53.2771866,258.148072 C53.3321212,258.305811 53.4019037,258.455267 53.4742078,258.603223 L52.9850786,259.486373 C52.8940354,259.648699 52.9230788,259.869437 53.0530132,260.002676 L53.9972935,260.946978 C54.1298801,261.082108 54.3552926,261.114304 54.5204009,261.021717 L55.3899639,260.532588 C55.5383113,260.605392 55.6936805,260.667457 55.8519192,260.722805 L56.1304403,261.687476 C56.1832227,261.867541 56.3639831,262.001649 56.5516348,261.999975 L57.8831532,261.999975 Z M57.5570671,261.130412 L56.877721,261.130412 L56.6331564,260.288001 C56.5928087,260.146502 56.4757655,260.029437 56.3342441,259.989089 C56.0686578,259.915915 55.8170063,259.81135 55.5801808,259.67659 C55.4515072,259.601112 55.2831815,259.598438 55.1521819,259.669851 L54.3845316,260.09785 L53.902185,259.622307 L54.3301839,258.847853 C54.401162,258.719614 54.401162,258.554875 54.3301839,258.426658 C54.1954452,258.189898 54.0840541,257.938159 54.0108804,257.672573 C53.9725544,257.528595 53.8550547,257.408422 53.7119681,257.366878 L52.8695789,257.122314 L52.8695789,256.442968 L53.7119681,256.205186 C53.8550547,256.163642 53.9725544,256.043469 54.0108804,255.899491 C54.0840541,255.633904 54.1954234,255.382253 54.3301839,255.145406 C54.4035751,255.015558 54.4035751,254.847276 54.3301839,254.717428 L53.902185,253.949756 L54.3777273,253.474214 L55.1521819,253.902191 C55.2831815,253.973561 55.4515072,253.970865 55.5801808,253.895452 C55.8170063,253.760692 56.068723,253.656105 56.3342441,253.582953 C56.4757655,253.542605 56.5928087,253.425562 56.6331564,253.284041 L56.877721,252.434891 L57.5570671,252.434891 L57.8016317,253.284041 C57.8419794,253.425562 57.9590443,253.542605 58.100544,253.582953 C58.3660868,253.656105 58.6177818,253.760692 58.854629,253.895452 C58.9833026,253.97093 59.1516065,253.973604 59.2826062,253.902191 L60.0570608,253.474214 L60.532603,253.949756 L60.1046259,254.717407 C60.031213,254.847254 60.031213,255.015558 60.1046259,255.145406 C60.2393864,255.382253 60.3507557,255.633904 60.4239077,255.899469 C60.4622337,256.043447 60.5797551,256.16362 60.7228199,256.205186 L61.5652091,256.442946 L61.5652091,257.122292 L60.7228199,257.366857 C60.5797551,257.408422 60.4622337,257.528595 60.4239077,257.672573 C60.3507557,257.938138 60.2393429,258.189898 60.1046259,258.426636 C60.033626,258.554875 60.033626,258.719614 60.1046259,258.847831 L60.532603,259.622286 L60.0502782,260.097828 L59.2826062,259.669851 C59.1516065,259.598481 58.9833026,259.601155 58.854629,259.67659 C58.6178035,259.81135 58.3661303,259.915894 58.100544,259.989089 C57.9590443,260.029437 57.8419794,260.14648 57.8016317,260.288001 L57.5570671,261.130412 L57.5570671,261.130412 Z M57.217394,258.739092 C58.2928044,258.739092 59.1739108,257.857986 59.1739108,256.782575 C59.1739108,255.707187 58.2928044,254.826059 57.217394,254.826059 C56.1419837,254.826059 55.2608772,255.707187 55.2608772,256.782575 C55.2608772,257.857986 56.1419837,258.739092 57.217394,258.739092 L57.217394,258.739092 Z M57.217394,257.869529 C56.611939,257.869529 56.1304403,257.38803 56.1304403,256.782575 C56.1304403,256.17712 56.611939,255.695622 57.217394,255.695622 C57.822849,255.695622 58.3043478,256.17712 58.3043478,256.782575 C58.3043478,257.38803 57.822849,257.869529 57.217394,257.869529 L57.217394,257.869529 Z M66.7010744,254.173886 C66.9196391,254.160408 67.0472692,254.022387 67.122269,253.861387 L67.4551594,252.686129 C67.6671589,252.614477 67.8695062,252.526456 68.0665709,252.427999 L69.1399378,253.025802 C69.3050461,253.118411 69.5304585,253.086193 69.6630234,252.951063 L70.777151,251.836957 C70.9070855,251.703719 70.9361289,251.482958 70.8450857,251.320633 L70.2540654,250.25407 C70.3532391,250.056353 70.4400432,249.848658 70.5122169,249.635854 L71.6874748,249.296181 C71.8653874,249.244029 71.9987566,249.06716 71.999974,248.881791 L71.999974,247.298904 C72.0021479,247.111252 71.8675613,246.930492 71.6874748,246.877709 L70.5122169,246.54484 C70.439891,246.330819 70.3536956,246.125407 70.2540654,245.926625 L70.8450857,244.860062 C70.9361289,244.697736 70.9070855,244.476998 70.777151,244.343759 L69.6630234,243.229631 C69.5304585,243.094501 69.3050461,243.062284 69.1399378,243.154892 L68.0733535,243.745934 C67.8749193,243.646478 67.6687893,243.566804 67.4551594,243.494566 L67.122269,242.319308 C67.0719648,242.136743 66.8904435,241.999135 66.7010744,242.000004 L65.1249914,242.000004 C64.9356441,242.000004 64.7541011,242.136743 64.7037968,242.319308 L64.3709281,243.494566 C64.1572765,243.566804 63.9511683,243.646478 63.7527123,243.745934 L62.6861498,243.154892 C62.5210415,243.062284 62.2956203,243.094501 62.1630337,243.229631 L61.0489061,244.343759 C60.9189716,244.476998 60.8899282,244.697736 60.9809715,244.860062 L61.5720135,245.926625 C61.4723615,246.125407 61.3861878,246.330819 61.3138619,246.54484 L60.1385823,246.877709 C59.9585175,246.930492 59.8243874,247.111252 59.8260831,247.298904 L59.8260831,248.881791 C59.828257,249.06716 59.9606914,249.244029 60.1385823,249.296181 L61.3138619,249.635854 C61.3860139,249.848658 61.4728398,250.056353 61.5720135,250.25407 L60.9809715,251.320633 C60.8899282,251.482958 60.9189716,251.703719 61.0489061,251.836957 L62.1630337,252.951063 C62.2956203,253.086193 62.5210415,253.118411 62.6861498,253.025802 L63.7595166,252.427999 C63.9565596,252.526456 64.1589069,252.614477 64.3709281,252.686129 L64.7037968,253.861387 C64.7565793,254.041474 64.9373397,254.175582 65.1249914,254.173886 L66.7010744,254.173886 Z M66.3749883,253.304323 L65.4510776,253.304323 L65.1521653,252.251369 C65.1106219,252.108283 64.9904483,251.990783 64.8464704,251.952457 C64.5259929,251.864175 64.2214068,251.734327 63.9361466,251.572023 C63.8062991,251.498611 63.6379952,251.498611 63.5081477,251.572023 L62.5502805,252.108696 L61.8980996,251.456502 L62.4347721,250.49183 C62.5061415,250.360831 62.5034676,250.192527 62.428033,250.063853 C62.2657291,249.778571 62.1426859,249.474007 62.0544035,249.153529 C62.0128384,249.010443 61.8926648,248.892943 61.7486869,248.854617 L60.6956896,248.548901 L60.6956896,247.631794 L61.7486869,247.326078 C61.89423,247.286556 62.0148602,247.165926 62.0543818,247.020383 C62.1426859,246.699905 62.2657074,246.402123 62.428033,246.116842 C62.5035111,245.988168 62.506185,245.819864 62.4347721,245.688864 L61.8980778,244.724193 L62.5502588,244.072021 L63.5081477,244.608693 C63.6379952,244.682106 63.8062991,244.682106 63.9361466,244.608693 C64.2214068,244.446389 64.5259929,244.316542 64.8464704,244.228259 C64.9904483,244.189933 65.1106219,244.072434 65.1521653,243.929347 L65.4510776,242.869567 L66.3749883,242.869567 L66.6739005,243.929347 C66.7154657,244.072434 66.8356393,244.189933 66.9796172,244.228259 C67.3000946,244.316542 67.6046591,244.446389 67.889941,244.608693 C68.0197885,244.682106 68.1880706,244.682106 68.3179181,244.608693 L69.275807,244.072021 L69.9279793,244.724193 L69.391285,245.688864 C69.3199373,245.819864 69.3226112,245.988168 69.3980241,246.116842 C69.560328,246.402123 69.6833712,246.699905 69.7716753,247.020383 C69.8111752,247.165926 69.9318271,247.286556 70.0773702,247.326078 L71.1303675,247.631794 L71.1303675,248.548901 L70.0773919,248.854617 C69.933414,248.892943 69.8132404,249.010443 69.7716753,249.153529 C69.6833929,249.474007 69.5603498,249.778571 69.3980458,250.063853 C69.3225678,250.192527 69.3198721,250.360831 69.3913067,250.49183 L69.9279793,251.456502 L69.275807,252.108696 L68.3179399,251.572023 C68.1880924,251.498611 68.0197885,251.498611 67.889941,251.572023 C67.6046591,251.734327 67.3000946,251.864175 66.9796172,251.952457 C66.8356393,251.990783 66.7154657,252.108283 66.6739223,252.251369 L66.3749883,253.304323 Z M65.9130329,250.478244 C67.2285731,250.478244 68.3043312,249.402464 68.3043312,248.086945 C68.3043312,246.771427 67.2285731,245.695647 65.9130329,245.695647 C64.5975145,245.695647 63.5217346,246.771427 63.5217346,248.086945 C63.5217346,249.402464 64.5975145,250.478244 65.9130329,250.478244 Z M65.9130329,249.608681 C65.0674481,249.608681 64.3912976,248.93253 64.3912976,248.086945 C64.3912976,247.241382 65.0674481,246.56521 65.9130329,246.56521 C66.7586177,246.56521 67.4347682,247.241382 67.4347682,248.086945 C67.4347682,248.93253 66.7586177,249.608681 65.9130329,249.608681 Z" id="Shape"></path>
        </g>
    </g>
</svg>