<?xml version="1.0" encoding="UTF-8"?>
<svg width="20px" height="20px" viewBox="0 0 20 20" version="1.1" xmlns="http://www.w3.org/2000/svg" xmlns:xlink="http://www.w3.org/1999/xlink">
    <!-- Generator: Sketch 48.2 (47327) - http://www.bohemiancoding.com/sketch -->
    <title>Shape Copy</title>
    <desc>Created with Sketch.</desc>
    <defs></defs>
    <g id="Screen---Add-Data-Profiles-=-Search-Box-Add" stroke="none" stroke-width="1" fill="none" fill-rule="evenodd" transform="translate(-54.000000, -342.000000)">
        <path d="M59.8831532,361.999975 C60.1017179,361.986497 60.2379349,361.846693 60.3043478,361.687476 L60.5828906,360.722805 C60.7411076,360.667457 60.8964767,360.605392 61.0448459,360.532588 L61.9144089,361.021717 C62.0795172,361.114304 62.3049297,361.082108 62.4374946,360.946978 L63.3817965,360.002676 C63.511731,359.869437 63.5407744,359.648699 63.4497312,359.486373 L62.960602,358.603223 C63.0329061,358.455267 63.1026886,358.305811 63.1576015,358.148072 L64.1222729,357.869529 C64.3001855,357.817377 64.4335548,357.640508 64.4347721,357.455139 L64.4347721,356.116816 C64.436946,355.929165 64.3023594,355.748404 64.1222729,355.695622 L63.1576015,355.423883 C63.1026886,355.266144 63.0328844,355.116667 62.960602,354.968732 L63.4497312,354.085582 C63.5407744,353.923257 63.511731,353.702518 63.3817965,353.569279 L62.4374946,352.624977 C62.3049297,352.489869 62.0795172,352.457673 61.9144089,352.55026 L61.0448459,353.039389 C60.8942376,352.965433 60.7368902,352.898281 60.5760862,352.842368 L60.3043478,351.884523 C60.2540436,351.701958 60.0725223,351.564349 59.8831532,351.565219 L58.5516348,351.565219 C58.3622875,351.565219 58.1807662,351.701958 58.1304403,351.884523 L57.8587018,352.842368 C57.6979196,352.898281 57.5405722,352.965433 57.3899639,353.039389 L56.5204009,352.55026 C56.3552926,352.457673 56.1298801,352.489869 55.9972935,352.624977 L55.0530132,353.569279 C54.9230788,353.702518 54.8940354,353.923257 54.9850786,354.085582 L55.4742078,354.968732 C55.4019037,355.116667 55.3321212,355.266144 55.2771866,355.423883 L54.3125151,355.695622 C54.1324503,355.748404 53.9983203,355.929165 54.0000159,356.116816 L54.0000159,357.455139 C54.0021898,357.640508 54.1346243,357.817377 54.3125151,357.869529 L55.2771866,358.148072 C55.3321212,358.305811 55.4019037,358.455267 55.4742078,358.603223 L54.9850786,359.486373 C54.8940354,359.648699 54.9230788,359.869437 55.0530132,360.002676 L55.9972935,360.946978 C56.1298801,361.082108 56.3552926,361.114304 56.5204009,361.021717 L57.3899639,360.532588 C57.5383113,360.605392 57.6936805,360.667457 57.8519192,360.722805 L58.1304403,361.687476 C58.1832227,361.867541 58.3639831,362.001649 58.5516348,361.999975 L59.8831532,361.999975 Z M59.5570671,361.130412 L58.877721,361.130412 L58.6331564,360.288001 C58.5928087,360.146502 58.4757655,360.029437 58.3342441,359.989089 C58.0686578,359.915915 57.8170063,359.81135 57.5801808,359.67659 C57.4515072,359.601112 57.2831815,359.598438 57.1521819,359.669851 L56.3845316,360.09785 L55.902185,359.622307 L56.3301839,358.847853 C56.401162,358.719614 56.401162,358.554875 56.3301839,358.426658 C56.1954452,358.189898 56.0840541,357.938159 56.0108804,357.672573 C55.9725544,357.528595 55.8550547,357.408422 55.7119681,357.366878 L54.8695789,357.122314 L54.8695789,356.442968 L55.7119681,356.205186 C55.8550547,356.163642 55.9725544,356.043469 56.0108804,355.899491 C56.0840541,355.633904 56.1954234,355.382253 56.3301839,355.145406 C56.4035751,355.015558 56.4035751,354.847276 56.3301839,354.717428 L55.902185,353.949756 L56.3777273,353.474214 L57.1521819,353.902191 C57.2831815,353.973561 57.4515072,353.970865 57.5801808,353.895452 C57.8170063,353.760692 58.068723,353.656105 58.3342441,353.582953 C58.4757655,353.542605 58.5928087,353.425562 58.6331564,353.284041 L58.877721,352.434891 L59.5570671,352.434891 L59.8016317,353.284041 C59.8419794,353.425562 59.9590443,353.542605 60.100544,353.582953 C60.3660868,353.656105 60.6177818,353.760692 60.854629,353.895452 C60.9833026,353.97093 61.1516065,353.973604 61.2826062,353.902191 L62.0570608,353.474214 L62.532603,353.949756 L62.1046259,354.717407 C62.031213,354.847254 62.031213,355.015558 62.1046259,355.145406 C62.2393864,355.382253 62.3507557,355.633904 62.4239077,355.899469 C62.4622337,356.043447 62.5797551,356.16362 62.7228199,356.205186 L63.5652091,356.442946 L63.5652091,357.122292 L62.7228199,357.366857 C62.5797551,357.408422 62.4622337,357.528595 62.4239077,357.672573 C62.3507557,357.938138 62.2393429,358.189898 62.1046259,358.426636 C62.033626,358.554875 62.033626,358.719614 62.1046259,358.847831 L62.532603,359.622286 L62.0502782,360.097828 L61.2826062,359.669851 C61.1516065,359.598481 60.9833026,359.601155 60.854629,359.67659 C60.6178035,359.81135 60.3661303,359.915894 60.100544,359.989089 C59.9590443,360.029437 59.8419794,360.14648 59.8016317,360.288001 L59.5570671,361.130412 Z M59.217394,358.739092 C60.2928044,358.739092 61.1739108,357.857986 61.1739108,356.782575 C61.1739108,355.707187 60.2928044,354.826059 59.217394,354.826059 C58.1419837,354.826059 57.2608772,355.707187 57.2608772,356.782575 C57.2608772,357.857986 58.1419837,358.739092 59.217394,358.739092 Z M59.217394,357.869529 C58.611939,357.869529 58.1304403,357.38803 58.1304403,356.782575 C58.1304403,356.17712 58.611939,355.695622 59.217394,355.695622 C59.822849,355.695622 60.3043478,356.17712 60.3043478,356.782575 C60.3043478,357.38803 59.822849,357.869529 59.217394,357.869529 Z M68.7010744,354.173886 C68.9196391,354.160408 69.0472692,354.022387 69.122269,353.861387 L69.4551594,352.686129 C69.6671589,352.614477 69.8695062,352.526456 70.0665709,352.427999 L71.1399378,353.025802 C71.3050461,353.118411 71.5304585,353.086193 71.6630234,352.951063 L72.777151,351.836957 C72.9070855,351.703719 72.9361289,351.482958 72.8450857,351.320633 L72.2540654,350.25407 C72.3532391,350.056353 72.4400432,349.848658 72.5122169,349.635854 L73.6874748,349.296181 C73.8653874,349.244029 73.9987566,349.06716 73.999974,348.881791 L73.999974,347.298904 C74.0021479,347.111252 73.8675613,346.930492 73.6874748,346.877709 L72.5122169,346.54484 C72.439891,346.330819 72.3536956,346.125407 72.2540654,345.926625 L72.8450857,344.860062 C72.9361289,344.697736 72.9070855,344.476998 72.777151,344.343759 L71.6630234,343.229631 C71.5304585,343.094501 71.3050461,343.062284 71.1399378,343.154892 L70.0733535,343.745934 C69.8749193,343.646478 69.6687893,343.566804 69.4551594,343.494566 L69.122269,342.319308 C69.0719648,342.136743 68.8904435,341.999135 68.7010744,342.000004 L67.1249914,342.000004 C66.9356441,342.000004 66.7541011,342.136743 66.7037968,342.319308 L66.3709281,343.494566 C66.1572765,343.566804 65.9511683,343.646478 65.7527123,343.745934 L64.6861498,343.154892 C64.5210415,343.062284 64.2956203,343.094501 64.1630337,343.229631 L63.0489061,344.343759 C62.9189716,344.476998 62.8899282,344.697736 62.9809715,344.860062 L63.5720135,345.926625 C63.4723615,346.125407 63.3861878,346.330819 63.3138619,346.54484 L62.1385823,346.877709 C61.9585175,346.930492 61.8243874,347.111252 61.8260831,347.298904 L61.8260831,348.881791 C61.828257,349.06716 61.9606914,349.244029 62.1385823,349.296181 L63.3138619,349.635854 C63.3860139,349.848658 63.4728398,350.056353 63.5720135,350.25407 L62.9809715,351.320633 C62.8899282,351.482958 62.9189716,351.703719 63.0489061,351.836957 L64.1630337,352.951063 C64.2956203,353.086193 64.5210415,353.118411 64.6861498,353.025802 L65.7595166,352.427999 C65.9565596,352.526456 66.1589069,352.614477 66.3709281,352.686129 L66.7037968,353.861387 C66.7565793,354.041474 66.9373397,354.175582 67.1249914,354.173886 L68.7010744,354.173886 Z M68.3749883,353.304323 L67.4510776,353.304323 L67.1521653,352.251369 C67.1106219,352.108283 66.9904483,351.990783 66.8464704,351.952457 C66.5259929,351.864175 66.2214068,351.734327 65.9361466,351.572023 C65.8062991,351.498611 65.6379952,351.498611 65.5081477,351.572023 L64.5502805,352.108696 L63.8980996,351.456502 L64.4347721,350.49183 C64.5061415,350.360831 64.5034676,350.192527 64.428033,350.063853 C64.2657291,349.778571 64.1426859,349.474007 64.0544035,349.153529 C64.0128384,349.010443 63.8926648,348.892943 63.7486869,348.854617 L62.6956896,348.548901 L62.6956896,347.631794 L63.7486869,347.326078 C63.89423,347.286556 64.0148602,347.165926 64.0543818,347.020383 C64.1426859,346.699905 64.2657074,346.402123 64.428033,346.116842 C64.5035111,345.988168 64.506185,345.819864 64.4347721,345.688864 L63.8980778,344.724193 L64.5502588,344.072021 L65.5081477,344.608693 C65.6379952,344.682106 65.8062991,344.682106 65.9361466,344.608693 C66.2214068,344.446389 66.5259929,344.316542 66.8464704,344.228259 C66.9904483,344.189933 67.1106219,344.072434 67.1521653,343.929347 L67.4510776,342.869567 L68.3749883,342.869567 L68.6739005,343.929347 C68.7154657,344.072434 68.8356393,344.189933 68.9796172,344.228259 C69.3000946,344.316542 69.6046591,344.446389 69.889941,344.608693 C70.0197885,344.682106 70.1880706,344.682106 70.3179181,344.608693 L71.275807,344.072021 L71.9279793,344.724193 L71.391285,345.688864 C71.3199373,345.819864 71.3226112,345.988168 71.3980241,346.116842 C71.560328,346.402123 71.6833712,346.699905 71.7716753,347.020383 C71.8111752,347.165926 71.9318271,347.286556 72.0773702,347.326078 L73.1303675,347.631794 L73.1303675,348.548901 L72.0773919,348.854617 C71.933414,348.892943 71.8132404,349.010443 71.7716753,349.153529 C71.6833929,349.474007 71.5603498,349.778571 71.3980458,350.063853 C71.3225678,350.192527 71.3198721,350.360831 71.3913067,350.49183 L71.9279793,351.456502 L71.275807,352.108696 L70.3179399,351.572023 C70.1880924,351.498611 70.0197885,351.498611 69.889941,351.572023 C69.6046591,351.734327 69.3000946,351.864175 68.9796172,351.952457 C68.8356393,351.990783 68.7154657,352.108283 68.6739223,352.251369 L68.3749883,353.304323 Z M67.9130329,350.478244 C69.2285731,350.478244 70.3043312,349.402464 70.3043312,348.086945 C70.3043312,346.771427 69.2285731,345.695647 67.9130329,345.695647 C66.5975145,345.695647 65.5217346,346.771427 65.5217346,348.086945 C65.5217346,349.402464 66.5975145,350.478244 67.9130329,350.478244 Z M67.9130329,349.608681 C67.0674481,349.608681 66.3912976,348.93253 66.3912976,348.086945 C66.3912976,347.241382 67.0674481,346.56521 67.9130329,346.56521 C68.7586177,346.56521 69.4347682,347.241382 69.4347682,348.086945 C69.4347682,348.93253 68.7586177,349.608681 67.9130329,349.608681 Z" id="Shape-Copy" fill="#000000" fill-rule="nonzero"></path>
    </g>
</svg>