<?xml version="1.0" encoding="UTF-8"?>
<svg width="38px" height="25px" viewBox="0 0 38 25" version="1.1" xmlns="http://www.w3.org/2000/svg" xmlns:xlink="http://www.w3.org/1999/xlink">
    <!-- Generator: Sketch 48.2 (47327) - http://www.bohemiancoding.com/sketch -->
    <title>a</title>
    <desc>Created with Sketch.</desc>
    <defs></defs>
    <g id="Screen---Resources" stroke="none" stroke-width="1" fill="none" fill-rule="evenodd" transform="translate(-290.000000, -156.000000)">
        <g id="Group-2" transform="translate(290.000000, 156.000000)" fill="#000000">
            <path d="M18.1226202,14.3814134 L18.1226202,24.32282 L19.8239162,24.3228204 L19.8239162,14.384076 L22.5865788,17.1467386 L23.7914595,15.9418581 L18.9719369,11.1223353 L14.1524143,15.9418581 L15.3572949,17.1467386 L18.1226202,14.3814134 Z M6.08575026,24.400139 C2.7611141,23.8586704 0.228392691,21.0512235 0.228392691,17.6693195 C0.228392691,14.9858644 1.82276542,12.6641467 4.14227902,11.5493584 C3.88572675,10.9862765 3.74280723,10.3629049 3.74280723,9.70654485 C3.74280723,7.19372067 5.84091273,5.15638787 8.4286933,5.15638787 C9.80751525,5.15638787 11.0481036,5.73539533 11.9056207,6.65566455 C13.7178872,3.07241596 17.5122834,0.60623093 21.9006157,0.60623093 C27.9840673,0.60623093 32.9288485,5.34635695 33.0272521,11.2319849 C35.7591237,12.1681798 37.7154811,14.6969294 37.7154811,17.6693195 C37.7154811,21.0512235 35.1827597,23.8586704 31.8581235,24.400139 L30.686652,24.4945549 L24.2013269,24.4945549 L24.2013269,22.8025951 L30.6043473,22.8025951 L31.6349788,22.8025952 C33.880034,22.4442705 36.1092906,19.7191088 36.1092906,17.5425348 C36.1092906,15.6643802 34.8622962,13.9814735 33.0057637,13.3569012 L31.3581272,12.9156791 L31.3581267,11.3177659 C31.2825159,6.80819771 26.6121039,2.29819066 21.8800394,2.29819066 C18.5264156,2.29819066 15.5513738,4.10581839 13.7870108,6.73565005 L12.2291531,8.81343978 L10.3967325,7.54017601 C9.95004789,7.06758656 9.16930473,6.73565017 8.50276762,6.73565024 C6.5613185,6.73565044 5.32430626,8.55335119 5.32430626,9.7769807 C5.32430626,10.0909309 5.39061097,10.3926782 5.5220572,10.6755663 L6.08575026,12.1485076 C3.28503481,13.1150636 1.83458315,15.8418785 1.83458315,17.5425348 C1.83458315,19.7191088 4.31626312,22.3821459 6.56131829,22.7404706 L7.33952656,22.8025951 L13.7870108,22.8025946 L13.7870108,24.4945542 L7.25722179,24.4945549 L6.08575026,24.400139 Z" id="a"></path>
        </g>
    </g>
</svg>