<?xml version="1.0" encoding="UTF-8"?>
<svg width="20px" height="14px" viewBox="0 0 20 14" version="1.1" xmlns="http://www.w3.org/2000/svg" xmlns:xlink="http://www.w3.org/1999/xlink">
    <!-- Generator: Sketch 47.1 (45422) - http://www.bohemiancoding.com/sketch -->
    <title>noun_1308453_cc</title>
    <desc>Created with Sketch.</desc>
    <defs></defs>
    <g id="Symbols" stroke="none" stroke-width="1" fill="none" fill-rule="evenodd">
        <g id="Sidebar" transform="translate(-52.000000, -205.000000)" fill-rule="nonzero" stroke="#333333" fill="#000000">
            <g id="noun_1308453_cc" transform="translate(53.000000, 206.000000)">
                <g id="Group">
                    <g id="Shape">
                        <path d="M18,11.3225806 C18,11.6415111 17.7411514,11.9032258 17.4214491,11.9032258 L8.70758315,11.9032258 C8.38943983,11.9032258 8.12903226,11.6423557 8.12903226,11.3225806 C8.12903226,8.59678818 10.3387237,6.38709677 13.0645161,6.38709677 C15.7903086,6.38709677 18,8.59678818 18,11.3225806 Z M13.0645161,6.96774194 C10.6594051,6.96774194 8.70967742,8.91746965 8.70967742,11.3225806 C8.70967742,11.3219047 17.4214491,11.3225806 17.4214491,11.3225806 C17.4193548,8.91746965 15.4696271,6.96774194 13.0645161,6.96774194 Z M13.0645161,5.80645161 C11.4611088,5.80645161 10.1612903,4.50663315 10.1612903,2.90322581 C10.1612903,1.29981847 11.4611088,0 13.0645161,0 C14.6679235,0 15.9677419,1.29981847 15.9677419,2.90322581 C15.9677419,4.50663315 14.6679235,5.80645161 13.0645161,5.80645161 Z M13.0645161,5.22580645 C14.347242,5.22580645 15.3870968,4.18595168 15.3870968,2.90322581 C15.3870968,1.62049994 14.347242,0.580645161 13.0645161,0.580645161 C11.7817903,0.580645161 10.7419355,1.62049994 10.7419355,2.90322581 C10.7419355,4.18595168 11.7817903,5.22580645 13.0645161,5.22580645 Z" stroke-width="0.5"></path>
                        <path d="M9.87096774,11.3225806 C9.87096774,11.6415111 9.61211912,11.9032258 9.29241685,11.9032258 L0.57855089,11.9032258 C0.260407568,11.9032258 0,11.6423557 0,11.3225806 C0,8.59678818 2.20969141,6.38709677 4.93548387,6.38709677 C7.66127633,6.38709677 9.87096774,8.59678818 9.87096774,11.3225806 Z M4.93548387,6.96774194 C2.53037288,6.96774194 0.580645161,8.91746965 0.580645161,11.3225806 C0.580645161,11.3219047 9.29241685,11.3225806 9.29241685,11.3225806 C9.29032258,8.91746965 7.34059486,6.96774194 4.93548387,6.96774194 Z M4.93548387,5.80645161 C3.33207653,5.80645161 2.03225806,4.50663315 2.03225806,2.90322581 C2.03225806,1.29981847 3.33207653,0 4.93548387,0 C6.53889121,0 7.83870968,1.29981847 7.83870968,2.90322581 C7.83870968,4.50663315 6.53889121,5.80645161 4.93548387,5.80645161 Z M4.93548387,5.22580645 C6.21820974,5.22580645 7.25806452,4.18595168 7.25806452,2.90322581 C7.25806452,1.62049994 6.21820974,0.580645161 4.93548387,0.580645161 C3.652758,0.580645161 2.61290323,1.62049994 2.61290323,2.90322581 C2.61290323,4.18595168 3.652758,5.22580645 4.93548387,5.22580645 Z" stroke-width="0.4"></path>
                    </g>
                </g>
            </g>
        </g>
    </g>
</svg>