<?xml version="1.0" encoding="UTF-8"?>
<svg width="19px" height="14px" viewBox="0 0 19 14" version="1.1" xmlns="http://www.w3.org/2000/svg" xmlns:xlink="http://www.w3.org/1999/xlink">
    <!-- Generator: Sketch 48.2 (47327) - http://www.bohemiancoding.com/sketch -->
    <title>Group</title>
    <desc>Created with Sketch.</desc>
    <defs></defs>
    <g id="Screen---Add-Data-Profiles-=-Search-Box-Add" stroke="none" stroke-width="1" fill="none" fill-rule="evenodd" transform="translate(-54.000000, -305.000000)">
        <g id="noun_1308453_cc" transform="translate(55.000000, 306.000000)" fill="#000000" fill-rule="nonzero" stroke="#333333">
            <g id="Group">
                <g id="Shape">
                    <path d="M17,11.3225806 C17,11.6415111 16.7411514,11.9032258 16.4214491,11.9032258 L7.70758315,11.9032258 C7.38943983,11.9032258 7.12903226,11.6423557 7.12903226,11.3225806 C7.12903226,8.59678818 9.33872367,6.38709677 12.0645161,6.38709677 C14.7903086,6.38709677 17,8.59678818 17,11.3225806 Z M12.0645161,6.96774194 C9.65940514,6.96774194 7.70967742,8.91746965 7.70967742,11.3225806 C7.70967742,11.3219047 16.4214491,11.3225806 16.4214491,11.3225806 C16.4193548,8.91746965 14.4696271,6.96774194 12.0645161,6.96774194 Z M12.0645161,5.80645161 C10.4611088,5.80645161 9.16129032,4.50663315 9.16129032,2.90322581 C9.16129032,1.29981847 10.4611088,0 12.0645161,0 C13.6679235,0 14.9677419,1.29981847 14.9677419,2.90322581 C14.9677419,4.50663315 13.6679235,5.80645161 12.0645161,5.80645161 Z M12.0645161,5.22580645 C13.347242,5.22580645 14.3870968,4.18595168 14.3870968,2.90322581 C14.3870968,1.62049994 13.347242,0.580645161 12.0645161,0.580645161 C10.7817903,0.580645161 9.74193548,1.62049994 9.74193548,2.90322581 C9.74193548,4.18595168 10.7817903,5.22580645 12.0645161,5.22580645 Z" stroke-width="0.5"></path>
                    <path d="M9.87096774,11.3225806 C9.87096774,11.6415111 9.61211912,11.9032258 9.29241685,11.9032258 L0.57855089,11.9032258 C0.260407568,11.9032258 0,11.6423557 0,11.3225806 C0,8.59678818 2.20969141,6.38709677 4.93548387,6.38709677 C7.66127633,6.38709677 9.87096774,8.59678818 9.87096774,11.3225806 Z M4.93548387,6.96774194 C2.53037288,6.96774194 0.580645161,8.91746965 0.580645161,11.3225806 C0.580645161,11.3219047 9.29241685,11.3225806 9.29241685,11.3225806 C9.29032258,8.91746965 7.34059486,6.96774194 4.93548387,6.96774194 Z M4.93548387,5.80645161 C3.33207653,5.80645161 2.03225806,4.50663315 2.03225806,2.90322581 C2.03225806,1.29981847 3.33207653,0 4.93548387,0 C6.53889121,0 7.83870968,1.29981847 7.83870968,2.90322581 C7.83870968,4.50663315 6.53889121,5.80645161 4.93548387,5.80645161 Z M4.93548387,5.22580645 C6.21820974,5.22580645 7.25806452,4.18595168 7.25806452,2.90322581 C7.25806452,1.62049994 6.21820974,0.580645161 4.93548387,0.580645161 C3.652758,0.580645161 2.61290323,1.62049994 2.61290323,2.90322581 C2.61290323,4.18595168 3.652758,5.22580645 4.93548387,5.22580645 Z" stroke-width="0.4"></path>
                </g>
            </g>
        </g>
    </g>
</svg>