<?xml version="1.0" encoding="UTF-8" standalone="no"?>
<svg
   xmlns:dc="http://purl.org/dc/elements/1.1/"
   xmlns:cc="http://creativecommons.org/ns#"
   xmlns:rdf="http://www.w3.org/1999/02/22-rdf-syntax-ns#"
   xmlns:svg="http://www.w3.org/2000/svg"
   xmlns="http://www.w3.org/2000/svg"
   xmlns:sodipodi="http://sodipodi.sourceforge.net/DTD/sodipodi-0.dtd"
   xmlns:inkscape="http://www.inkscape.org/namespaces/inkscape"
   width="12px"
   height="12px"
   viewBox="0 0 12 12"
   version="1.1"
   id="svg10"
   sodipodi:docname="white-plus-icon.svg"
   inkscape:version="0.92.1 r15371">
  <metadata
     id="metadata14">
    <rdf:RDF>
      <cc:Work
         rdf:about="">
        <dc:format>image/svg+xml</dc:format>
        <dc:type
           rdf:resource="http://purl.org/dc/dcmitype/StillImage" />
      </cc:Work>
    </rdf:RDF>
  </metadata>
  <sodipodi:namedview
     pagecolor="#ffffff"
     bordercolor="#666666"
     borderopacity="1"
     objecttolerance="10"
     gridtolerance="10"
     guidetolerance="10"
     inkscape:pageopacity="0"
     inkscape:pageshadow="2"
     inkscape:window-width="1708"
     inkscape:window-height="808"
     id="namedview12"
     showgrid="false"
     inkscape:zoom="19.666667"
     inkscape:cx="6"
     inkscape:cy="6"
     inkscape:window-x="0"
     inkscape:window-y="27"
     inkscape:window-maximized="0"
     inkscape:current-layer="svg10" />
  <!-- Generator: Sketch 48.2 (47327) - http://www.bohemiancoding.com/sketch -->
  <title
     id="title2">Shape</title>
  <desc
     id="desc4">Created with Sketch.</desc>
  <defs
     id="defs6" />
  <g
     id="Screen---Add-Data-Profiles-=-Search-Box-Add"
     stroke="none"
     stroke-width="1"
     fill="none"
     fill-rule="evenodd"
     transform="translate(-58.000000, -86.000000)"
     style="fill:#ffffff">
    <path
       d="M69.4165694,91.4154026 L64.5834306,91.4154026 L64.5834306,86.5834306 C64.5834306,86.2613769 64.3220537,86 64,86 C63.6779463,86 63.4165694,86.2613769 63.4165694,86.5834306 L63.4165694,91.4165694 L58.5834306,91.4165694 C58.2613769,91.4165694 58,91.6779463 58,92 C58,92.3220537 58.2613769,92.5834306 58.5834306,92.5834306 L63.4165694,92.5834306 L63.4165694,97.4165694 C63.4165694,97.7386231 63.6779463,98 64,98 C64.3220537,98 64.5834306,97.7386231 64.5834306,97.4165694 L64.5834306,92.5834306 L69.4165694,92.5834306 C69.7386231,92.5834306 70,92.3220537 70,92 C70,91.6779463 69.7386231,91.4154026 69.4165694,91.4154026 Z"
       id="Shape"
       fill="#333333"
       fill-rule="nonzero"
       style="fill:#ffffff" />
  </g>
</svg>
